<svg width="233" height="68" viewBox="0 0 233 68" fill="none" xmlns="http://www.w3.org/2000/svg">
<g clip-path="url(#clip0_1_395)">
<path opacity="0.4" d="M35.1487 0C30.3178 0 24.1664 1.2238 16.603 2.82659C6.94915 4.86758 -0.398921 7.50073 -2.57604e-06 20.702C0.243337 28.3843 2.07836 36.493 3.77376 43.5239C5.68458 51.4194 7.82278 58.2806 14.7041 62.6626C18.5577 65.1181 25.076 67.5973 30.8802 67.5973C34.4984 67.5973 37.4664 66.6814 39.7003 64.8773C42.6403 62.5087 42.8917 60.0019 43.2906 55.4501C43.7528 50.0997 44.5913 44.7876 45.7998 39.5525C46.3223 37.2549 46.837 35.21 47.3037 33.398C48.7837 27.5869 49.8568 23.3865 49.4738 16.924C49.1427 11.3972 48.9273 7.7297 46.3622 4.52412C43.9249 1.43698 40.3505 0 35.1487 0ZM30.8962 65.8169C25.439 65.8169 19.3276 63.4798 15.6934 61.1664C12.7899 59.3204 10.4712 56.7016 9.00358 53.6105C7.36801 50.3575 6.35875 46.4848 5.54097 43.1094C3.86152 36.1811 2.05443 28.1593 1.81507 20.6467C1.44009 8.75216 7.57944 6.55721 16.9779 4.56755C24.4377 2.98845 30.5092 1.78044 35.1487 1.78044C39.7881 1.78044 42.8518 2.96476 44.978 5.62949C47.192 8.39292 47.3715 11.6459 47.7026 17.0266C48.0696 23.2167 47.0284 27.2908 45.5883 32.9637V32.9992C45.1296 34.8073 44.607 36.8601 44.0844 39.1617C42.8565 44.4718 42.0061 49.8605 41.5393 55.2882C41.1404 59.6308 40.9449 61.6046 38.5913 63.4996C36.6885 65.0352 34.1035 65.8169 30.9082 65.8169" fill="#CDCCCC"/>
<path opacity="0.4" d="M64.6885 0.0947266C60.3403 0.0947266 57.1929 2.56997 56.3312 3.32793C53.2117 6.09136 52.7409 12.163 52.2702 15.8305L52.2343 16.1186C51.9972 18.261 51.8721 20.4141 51.8593 22.5693C51.8154 24.4721 51.7716 26.446 51.5601 28.3527C51.1609 31.4478 50.5949 34.5196 49.8647 37.5549L49.5217 39.0827C49.2584 40.267 48.9831 41.404 48.7238 42.4738C47.5271 47.3453 46.5896 51.1905 48.1095 56.1409C48.6799 58.0043 49.8368 61.3401 52.2064 63.6653C55.1105 66.5156 59.2513 68.0079 64.1739 68.0079C66.3681 68.003 68.5538 67.738 70.6843 67.2183C71.8113 66.9382 72.9113 66.5604 73.9713 66.0893C74.7665 65.6876 75.6403 65.4613 76.5324 65.426C76.7438 65.426 76.9313 65.426 77.1228 65.426C78.0445 65.4445 78.9548 65.6319 79.8075 65.9787C81.6166 66.6105 83.4889 67.0486 85.3924 67.2854C86.6588 67.4602 87.9354 67.5525 89.214 67.5618C93.1473 67.5618 95.2656 66.4801 96.5142 65.6669C97.1998 65.2091 97.8444 64.694 98.441 64.1272C99.2388 63.3377 106.26 55.4422 105.865 36.5917C105.602 24.2076 104.229 7.22042 95.856 3.48979C93.6739 2.57317 91.3292 2.09542 88.9587 2.08439C87.3004 2.07801 85.6518 2.33525 84.0759 2.84631L83.4456 3.05159C80.0469 4.16881 78.4951 4.67806 77.063 4.67806C76.2551 4.65922 75.4521 4.54929 74.6694 4.3504C73.0977 3.9951 72.2759 3.35557 71.1989 2.54233C69.9223 1.57119 68.3386 0.363174 65.614 0.134204C65.3068 0.110518 65.0037 0.0947266 64.6965 0.0947266M64.1779 66.2195C59.7379 66.2195 56.04 64.8931 53.4789 62.3823C51.241 60.1913 50.1839 56.737 49.8368 55.604C48.4565 51.1194 49.3062 47.6651 50.4791 42.8765C50.7304 41.8422 51.0176 40.6697 51.2769 39.442L51.608 37.9379C52.3574 34.8404 52.938 31.7053 53.3473 28.5462C53.5667 26.5723 53.6106 24.5589 53.6584 22.6245C53.6675 20.5302 53.786 18.4377 54.0135 16.3555L54.0494 16.0673C54.0893 15.7594 54.1292 15.4357 54.1691 15.1001C54.568 11.7722 55.1703 6.74669 57.524 4.67412C58.2659 4.02274 60.9706 1.91069 64.6845 1.91069C64.9438 1.91069 65.1991 1.91069 65.4505 1.94227C67.6565 2.12387 68.8931 3.07133 70.0939 3.98721C71.2946 4.90309 72.3079 5.6729 74.2626 6.11505C75.1754 6.34727 76.1126 6.47313 77.055 6.49008C78.7903 6.49008 80.4258 5.95319 84.0201 4.77281L84.6464 4.56753C86.0364 4.10596 87.4925 3.8687 88.9587 3.86483C91.0635 3.86704 93.1477 4.27605 95.0941 5.06889C103.471 8.79557 103.902 29.7108 104.046 36.5838C104.445 55.5764 97.2362 62.7376 97.1644 62.8087C96.6493 63.294 96.0957 63.7375 95.5089 64.1351C94.4478 64.822 92.6447 65.7379 89.194 65.7379C87.9928 65.7283 86.7936 65.6413 85.6038 65.4774C83.8163 65.2574 82.0586 64.8444 80.362 64.2457C79.3227 63.8373 78.217 63.6192 77.0989 63.6022C76.8755 63.6022 76.6481 63.6022 76.3968 63.6259C75.2986 63.6706 74.2216 63.9394 73.2333 64.4154C72.2622 64.8528 71.2527 65.2017 70.2175 65.4576C68.2326 65.9471 66.1955 66.1989 64.15 66.2077" fill="#CDCCCC"/>
<path opacity="0.4" d="M120.21 1.28699H119.811C115.515 1.39753 112.128 3.11085 110.01 6.23352C107.516 9.89703 107.568 15.791 107.492 20.5283C107.437 24.1918 107.68 27.9146 107.915 31.511C108.035 33.3111 108.155 35.1705 108.238 36.9904C108.284 39.1003 108.182 41.2107 107.935 43.3068C107.681 45.5002 107.58 47.7083 107.632 49.9154C108.083 59.39 117.106 66.1406 125.296 67.6408C126.48 67.8666 127.681 67.9855 128.886 67.9961C130.163 68.0072 131.433 67.8289 132.656 67.4671C140.1 65.2287 141.404 54.9606 142.27 48.7192V48.6166C143.136 42.3673 143.267 35.4074 142.669 26.7263C142.226 20.1888 139.478 12.6447 135.724 8.31793C134.369 6.76486 132.775 5.43263 131.001 4.37018C127.733 2.41039 123.999 1.34248 120.178 1.27515M128.863 66.2077C127.764 66.1984 126.669 66.0887 125.591 65.8801C121.542 65.0944 117.791 63.2158 114.753 60.4519C112.439 58.328 109.635 54.7632 109.399 49.8246C109.35 47.6977 109.45 45.57 109.698 43.4569C109.952 41.2833 110.055 39.095 110.006 36.9075C109.926 35.1232 109.794 33.1453 109.679 31.3807C109.447 27.8277 109.204 24.1405 109.28 20.552V19.794C109.335 15.5423 109.415 10.2523 111.466 7.22046C113.293 4.60705 116.161 3.15822 119.843 3.07137H120.21C123.701 3.14377 127.111 4.12699 130.095 5.92165C131.707 6.87661 133.158 8.07545 134.395 9.47462C137.802 13.3908 140.479 20.5283 140.906 26.8447C141.484 35.4034 141.357 42.241 140.507 48.3758V48.4784L140.467 48.7705C139.633 54.7908 138.381 63.8904 132.154 65.7459C131.1 66.0561 130.006 66.2091 128.906 66.1999" fill="#CDCCCC"/>
<path opacity="0.4" d="M163.277 0.0947871C158.111 0.0947871 152.602 1.212 148.729 4.01096C147.247 5.04396 146.009 6.38105 145.097 7.93099C144.186 9.48093 143.623 11.2072 143.447 12.9921C143.136 15.7239 143.551 20.098 143.954 22.7233C144.093 23.6036 144.225 24.48 144.332 25.3525C144.839 29.0165 145.114 32.7083 145.154 36.4062C145.154 38.0485 145.043 39.7302 144.939 41.3567C144.819 43.3542 144.692 45.4189 144.731 47.4717C144.855 53.9105 147.452 59.0268 152.446 62.6745C158.131 66.8276 164.953 67.9921 170.797 68.004H170.872C174.497 67.9915 178.109 67.5837 181.643 66.7881C191.134 64.6523 197.053 59.1058 197.895 51.5695C198.454 46.544 197.532 41.3725 196.639 36.3707C196.459 35.3561 196.28 34.3494 196.116 33.3546L195.996 32.644C194.883 25.9091 193.738 17.2951 189.729 11.5393C184.791 4.43336 176.481 2.02524 169.783 0.710636C167.64 0.296922 165.461 0.0906664 163.277 0.0947871ZM170.793 66.2196C163.84 66.2196 158.027 64.5339 153.516 61.2375C149.004 57.9412 146.642 53.2907 146.531 47.4204C146.495 45.4465 146.614 43.4095 146.738 41.4435C146.834 39.8644 146.941 38.1037 146.953 36.3944C146.913 32.6239 146.634 28.8596 146.12 25.1235C146.008 24.2076 145.86 23.2681 145.721 22.4391C145.294 19.6362 144.955 15.5423 145.226 13.1776C145.38 11.6401 145.867 10.1535 146.655 8.81948C147.442 7.48545 148.512 6.33541 149.79 5.44794C152.981 3.1464 157.768 1.89496 163.277 1.89496C165.341 1.89074 167.401 2.08243 169.428 2.46739C175.779 3.71882 183.662 5.99273 188.233 12.5618C191.708 17.5557 192.957 25.2341 193.954 31.4044C194.039 31.9308 194.123 32.444 194.205 32.944L194.325 33.6546C194.488 34.6573 194.672 35.6719 194.851 36.7023C195.721 41.5777 196.619 46.6151 196.088 51.3879C195.338 58.1228 189.921 63.1048 181.228 65.0629C177.826 65.8344 174.347 66.2315 170.857 66.2472L170.793 66.2196Z" fill="#CDCCCC"/>
<path opacity="0.4" d="M212.711 0.623779H212.312C208.163 0.718525 204.565 2.2463 201.9 5.03342C198.709 8.37716 196.994 13.4342 197.181 18.9137C197.433 24.0044 198.01 29.0742 198.908 34.0928C199.248 35.8022 199.595 37.5708 199.882 39.3078C200.384 42.3594 200.724 45.1347 200.911 47.7955C200.955 48.3916 200.983 48.9798 201.011 49.5956C201.122 51.8774 200.72 56.0976 201.549 58.3359C202.918 62.031 206.201 64.7866 211.315 66.5275C212.715 67.0052 215.631 67.9961 218.946 67.9961C221.741 68.0069 224.471 67.1548 226.754 65.5585C229.037 63.9622 230.76 61.701 231.684 59.09C232.856 55.8725 233.483 50.0101 232.501 46.4572C231.505 42.7255 231.101 38.8632 231.305 35.0087C231.364 33.3348 231.588 31.6255 231.807 29.9714C232.17 27.2395 232.569 21.4166 232.238 18.5545C231.636 13.2526 229.378 8.42453 226.147 5.66111C222.419 2.44903 217.653 0.662307 212.711 0.623779ZM218.958 66.2196C215.946 66.2196 213.226 65.2958 211.913 64.8458C207.338 63.2864 204.422 60.898 203.249 57.7398C202.774 56.4489 202.806 53.9776 202.85 51.984C202.85 51.0879 202.87 50.2352 202.85 49.5285C202.822 48.9048 202.794 48.2929 202.75 47.6889C202.559 44.9768 202.215 42.162 201.701 39.0393C201.41 37.2707 201.059 35.4864 200.72 33.7691C199.837 28.8432 199.271 23.867 199.024 18.8703C198.853 13.8606 200.392 9.26935 203.253 6.27301C205.578 3.83725 208.742 2.50291 212.392 2.42001H212.743C217.25 2.46237 221.595 4.09293 224.998 7.01914C227.878 9.49832 229.928 13.8961 230.479 18.7755C230.774 21.3771 230.435 27.0303 230.08 29.7779C229.857 31.4715 229.625 33.2243 229.561 34.9771C229.35 39.0138 229.774 43.0585 230.818 46.9664C231.696 50.1246 231.113 55.5686 230.044 58.5018C229.244 60.7675 227.75 62.7302 225.77 64.1163C223.791 65.5025 221.423 66.2432 218.998 66.2354" fill="#CDCCCC"/>
<path opacity="0.6" d="M36.8281 4.80444C34.4705 4.80444 32.1807 5.63742 29.9907 6.44671C28.8185 6.91087 27.6196 7.30633 26.4004 7.63103C23.3102 8.35827 20.1423 8.7122 16.966 8.68508H16.224C12.7893 8.68508 8.16987 9.42331 5.36946 12.9605C2.7007 16.3279 2.66081 21.4284 5.25777 27.3145L5.908 28.7791C7.55553 32.4663 9.25891 36.3193 10.1884 40.2671C10.5332 41.9743 10.736 43.7066 10.7947 45.4465C11.0062 48.7626 11.2216 52.1972 13.1284 55.0317C17.1854 61.0836 26.3286 62.4179 29.0173 62.6864C29.7553 62.7574 30.4415 62.7929 31.0877 62.7929C32.2466 62.8112 33.4025 62.6704 34.5224 62.3745C41.4436 60.4401 40.6617 53.421 40.0314 47.7678C39.7482 45.2294 39.4809 42.8292 39.82 40.9935C40.3386 38.159 41.4915 35.5574 42.7082 32.8019C43.7392 30.6197 44.6046 28.3646 45.2972 26.0552C46.2147 22.7075 47.9938 14.3422 44.6828 9.03248C44.0261 7.97275 43.1489 7.06348 42.1096 6.36512C41.0704 5.66676 39.8928 5.19531 38.6552 4.98209C38.1048 4.87185 37.5452 4.81238 36.9837 4.80444H36.8281ZM16.966 10.4497C20.2874 10.4798 23.6001 10.11 26.8313 9.3483C28.1169 9.01293 29.3811 8.60163 30.617 8.11661C32.6634 7.36259 34.7777 6.58488 36.8281 6.58488H36.9558C37.4055 6.5873 37.8541 6.62958 38.2962 6.71121C39.2938 6.87425 40.244 7.24861 41.0819 7.80867C41.9198 8.36874 42.6256 9.10131 43.151 9.95626C44.3916 11.9301 44.9381 14.7133 44.7786 18.1873C44.6433 20.6855 44.2421 23.1626 43.5818 25.5775C42.9106 27.8014 42.0746 29.9733 41.0806 32.0755C39.82 34.9297 38.6273 37.6024 38.0688 40.6619C37.6698 42.7542 37.965 45.2768 38.2642 47.9534C38.9703 54.4987 39.094 59.2163 34.0317 60.6493C33.072 60.9042 32.0813 61.0264 31.0877 61.0125C30.5093 61.0125 29.871 60.9809 29.1928 60.9138C19.2957 59.9387 15.5578 55.4146 14.6244 54.0526C12.9888 51.6129 12.7933 48.5692 12.5899 45.332C12.5255 43.4977 12.3094 41.6717 11.9436 39.8723C10.9743 35.739 9.23498 31.8268 7.55553 28.0291L6.9053 26.5684C4.58758 21.3179 4.5437 16.8688 6.78163 14.0382C9.13525 11.0695 13.2122 10.4418 16.22 10.4418H16.962" fill="#CDCCCC"/>
<path opacity="0.6" d="M65.247 7.22832C63.9226 7.22832 61.3775 7.47308 59.2633 9.07586C59.0034 9.26974 58.7593 9.48358 58.5333 9.7154C56.0959 12.1354 55.8047 15.6133 55.665 17.2872C55.3858 20.6191 55.31 22.0995 55.2661 23.2088C55.2182 24.176 55.1824 24.8708 55.0268 26.367L54.8473 28.104C54.588 30.5832 54.197 34.3375 54.0494 36.3943L54.0215 36.7891C53.9856 37.3852 53.9577 37.8589 53.6585 40.7052C53.5388 41.8264 53.4271 42.8686 53.3234 43.8319V43.9384C52.4697 51.7353 52.1506 54.6526 54.1531 57.5819C55.7688 59.9505 58.1423 60.9098 59.4029 61.4309C61.1882 62.1501 63.0962 62.524 65.0237 62.5323C67.211 62.5619 69.3661 62.0083 71.2627 60.9296C72.7655 59.9942 74.0581 58.7634 75.0604 57.3134C75.8303 56.3107 76.329 55.6948 76.9154 55.6948H77.0431C77.4819 55.7462 77.7013 56.0225 78.2159 56.7963C78.9041 57.9102 79.8003 58.8842 80.8567 59.6663C82.7483 61.0289 84.9923 61.8312 87.3272 61.9797C87.7261 62.0073 88.0811 62.0231 88.4361 62.0231C90.3755 62.0668 92.2922 61.6039 93.9931 60.6809C96.6499 59.1728 98.2894 56.591 99.6497 51.7787C101.082 46.7058 101.469 42.0277 101.182 33.2243C101.002 27.8356 100.639 16.624 96.5541 11.5116L96.4185 11.3458C95.7164 10.4536 94.2564 8.60213 91.7192 7.8639C90.9874 7.6511 90.2281 7.54472 89.4654 7.54808C88.912 7.55095 88.3598 7.59715 87.8138 7.68625C84.5108 8.2113 82.6877 9.91673 81.2277 11.2827C80.0309 12.3841 79.0337 13.3355 77.5377 13.446H77.2505C75.4673 13.446 74.1828 12.2617 72.6749 10.8484C70.9276 9.22982 68.945 7.39412 65.7976 7.21252C65.6619 7.21252 65.4744 7.21252 65.247 7.21252M65.0237 60.6966C63.3384 60.6979 61.6687 60.3789 60.105 59.7571C58.9402 59.2794 56.9895 58.4859 55.689 56.5791C54.1332 54.3013 54.2967 52.1221 55.1664 44.1556V44.0411C55.2701 43.0778 55.3858 42.0396 55.5015 40.9184C55.8047 38.0208 55.8326 37.5352 55.8725 36.9272L55.8964 36.5325C56.032 34.531 56.423 30.8161 56.6942 28.3567V28.3172L56.8778 26.5762C57.0333 25.0248 57.0732 24.2747 57.1251 23.3075C57.1809 22.2179 57.2567 20.7296 57.524 17.4451C57.6517 15.866 57.895 12.9644 59.8577 11.0182C60.0104 10.8647 60.1715 10.7198 60.3404 10.5839L60.3882 10.5484C62.0637 9.27325 64.142 9.07981 65.2311 9.07981C65.4146 9.07981 65.5662 9.07981 65.6739 9.07981C68.1512 9.22193 69.7269 10.6786 71.3944 12.238L71.4183 12.2617C73.0459 13.7697 74.7293 15.3291 77.2345 15.3291H77.6574C79.8115 15.1672 81.1719 13.8961 82.4843 12.6683C83.8925 11.3498 85.3525 9.98385 88.0891 9.54959C88.5388 9.47653 88.9936 9.43826 89.4494 9.43511C90.034 9.43065 90.6161 9.5118 91.1767 9.67592C93.1474 10.2483 94.3162 11.7288 94.9425 12.5262L95.0861 12.7038C98.7881 17.3267 99.1551 28.5383 99.3106 33.3269C99.5939 41.9132 99.2269 46.4571 97.8506 51.3207C96.6299 55.6238 95.2417 57.8858 93.0636 59.1333C91.6415 59.8923 90.0433 60.2694 88.4282 60.2269C88.109 60.2269 87.7819 60.2269 87.4588 60.1913C85.4694 60.063 83.5576 59.3786 81.9458 58.2175C81.0622 57.5634 80.3157 56.7455 79.7477 55.8093C79.1972 54.9882 78.5749 54.0486 77.2226 53.8947H76.8994C75.3636 53.8947 74.4501 55.079 73.5685 56.2357C72.7073 57.4969 71.5957 58.5715 70.3013 59.3939C68.6898 60.3015 66.8618 60.765 65.0077 60.7361" fill="#CDCCCC"/>
<path opacity="0.6" d="M165.244 5.45581C160.612 5.45581 156.651 6.80594 153.799 9.35224C148.549 14.0264 147.943 21.8311 149.012 27.0855C149.662 30.2832 150.252 33.4019 150.296 36.6233C150.276 38.243 150.117 39.8582 149.822 41.4514C149.534 43.0409 149.366 44.6495 149.319 46.2637C149.291 53.4091 154.684 59.0781 163.054 60.7006C165.876 61.2344 168.742 61.5067 171.615 61.5139H171.726C176.218 61.5139 180.901 60.8427 184.531 58.9912C190.639 55.8607 194.309 48.5376 193.06 41.9607C192.741 40.2829 192.003 38.763 191.285 37.2905C190.567 35.818 189.897 34.4362 189.626 32.9479C189.33 31.3057 189.534 29.6318 189.749 27.8593C189.961 26.4562 190.051 25.0377 190.017 23.6194C189.562 15.1041 179.358 7.23625 170.533 5.88612C168.783 5.62026 167.015 5.48041 165.244 5.46765M171.73 59.7097H171.623C168.872 59.6985 166.129 59.4342 163.429 58.9202C155.977 57.4793 151.19 52.5051 151.222 46.2756C151.269 44.7512 151.431 43.2325 151.705 41.7317C152.017 40.0379 152.186 38.3213 152.211 36.5996C152.163 33.244 151.557 30.0187 150.887 26.7302C150.326 23.9654 150.326 21.1179 150.887 18.3531C151.565 15.1357 152.977 12.5499 155.079 10.6787C157.573 8.45215 161.063 7.27572 165.22 7.26783C166.893 7.27998 168.564 7.41191 170.218 7.6626C178.157 8.87456 187.695 16.1384 188.098 23.6786C188.126 24.9993 188.041 26.32 187.843 27.6264C187.623 29.4463 187.392 31.3294 187.731 33.2322C188.046 34.985 188.808 36.5483 189.546 38.0642C190.24 39.4894 190.898 40.8277 191.169 42.2804C192.274 48.1152 189.027 54.6053 183.614 57.3806C179.904 59.2834 175.117 59.6861 171.714 59.6861" fill="#CDCCCC"/>
<path opacity="0.6" d="M214.478 7.18494C210.661 7.18494 207.238 8.68903 205.064 11.3222C201.848 15.2186 201.96 20.6981 202.311 23.6194C202.455 24.8038 202.71 27.3658 202.87 28.5423C203.328 32.1426 203.807 35.8653 204.011 39.5723C204.07 40.6658 204.098 41.7672 204.13 42.8687C204.202 45.6084 204.274 48.4389 204.836 51.1866C206.225 57.9925 210.565 61.8929 216.736 61.8929C219.796 61.8929 222.217 60.9454 223.917 59.0781C227.411 55.2685 227.244 48.5376 226.709 43.1016C226.321 39.131 226.442 35.1279 227.068 31.1873C227.603 27.7567 228.002 23.1378 227.65 19.5651C227.343 16.4582 226.777 14.5593 225.632 12.7907C223.422 9.38384 219.225 7.23231 214.674 7.1731L214.478 7.18494ZM216.736 60.0848C211.434 60.0848 207.844 56.7963 206.624 50.8234C206.093 48.2337 206.021 45.4781 205.949 42.8173C205.925 41.7238 205.893 40.5908 205.83 39.4736C205.626 35.6956 205.144 31.9413 204.677 28.3133C204.597 27.6698 204.477 26.5921 204.362 25.5499C204.274 24.7208 204.186 23.9273 204.122 23.3983C203.803 20.7652 203.687 15.8384 206.48 12.4591C208.295 10.2523 211.215 8.98906 214.458 8.98906H214.63C218.575 9.04038 222.209 10.8761 224.08 13.7777C225.054 15.2818 225.54 16.9556 225.815 19.7506C226.099 22.6443 225.887 26.821 225.245 30.9188C224.604 35.0052 224.483 39.1552 224.886 43.2713C225.385 48.3363 225.572 54.5737 222.56 57.878C221.208 59.3545 219.241 60.1006 216.716 60.1006" fill="#CDCCCC"/>
<path opacity="0.6" d="M123.848 7.81262H123.708C120.154 7.83631 115.65 8.99695 113.767 12.3999C111.266 16.9003 113.556 23.1378 113.305 27.9856C113.135 31.2435 112.784 34.4896 112.252 37.7089C112.1 38.5577 111.94 39.3394 111.793 40.0776C111.139 43.3305 110.62 45.9005 111.358 49.4377C111.639 51.1045 112.217 52.7085 113.065 54.175C115.036 57.4437 118.714 59.9387 122.907 60.8467C123.992 61.0827 125.099 61.2045 126.21 61.2099C128.498 61.2649 130.749 60.6227 132.656 59.3702C133.564 58.7351 134.348 57.9419 134.97 57.0292C138.417 52.2169 137.914 47.1993 137.272 40.8434C136.873 36.9431 136.434 32.5176 136.733 27.0461C136.801 25.8144 136.893 24.7169 136.98 23.7142C137.288 20.1336 136.829 15.791 134.798 12.9526C132.11 9.16275 127.378 7.82052 123.848 7.82052M126.21 59.4413C125.227 59.4368 124.248 59.3283 123.29 59.1176C119.576 58.328 116.328 56.1291 114.609 53.2749C113.864 51.9776 113.359 50.5592 113.117 49.0863C112.451 45.9045 112.914 43.6069 113.552 40.4329C113.716 39.6117 113.867 38.8538 114.019 38.0248C114.569 34.7343 114.928 31.4154 115.096 28.0843C115.135 26.2042 115.019 24.3241 114.749 22.4627C114.35 19.1545 113.971 15.7318 115.339 13.2605C116.823 10.5918 120.641 9.62069 123.716 9.597H123.86C126.94 9.597 131.041 10.7497 133.338 13.983C134.838 16.0989 135.532 19.6835 135.197 23.572C135.114 24.5669 135.018 25.6959 134.946 26.9553C134.643 32.5611 135.098 37.0576 135.496 41.025C136.119 47.2467 136.574 51.7392 133.502 56.0265C133 56.7712 132.364 57.4187 131.627 57.9372C130.019 58.9797 128.127 59.5101 126.206 59.4571" fill="#CDCCCC"/>
<path d="M120.026 49.0666V18.8229C120.026 17.8806 120.405 16.9769 121.078 16.3105C121.751 15.6442 122.664 15.2699 123.617 15.2699H126.912C127.864 15.2699 128.777 15.6442 129.45 16.3105C130.124 16.9769 130.502 17.8806 130.502 18.8229V49.0666C130.502 50.0089 130.124 50.9126 129.45 51.5789C128.777 52.2452 127.864 52.6196 126.912 52.6196H123.625C122.672 52.6196 121.759 52.2452 121.086 51.5789C120.413 50.9126 120.034 50.0089 120.034 49.0666" fill="#CDCCCC"/>
<path d="M209.647 49.2127V18.9729C209.647 18.0306 210.026 17.1269 210.699 16.4606C211.372 15.7943 212.285 15.4199 213.238 15.4199H216.537C217.489 15.4199 218.402 15.7943 219.075 16.4606C219.749 17.1269 220.127 18.0306 220.127 18.9729V49.2127C220.127 50.155 219.749 51.0587 219.075 51.725C218.402 52.3913 217.489 52.7656 216.537 52.7656H213.238C212.285 52.7656 211.372 52.3913 210.699 51.725C210.026 51.0587 209.647 50.155 209.647 49.2127Z" fill="#CDCCCC"/>
<path d="M89.1023 15.3962H85.8032C84.851 15.3962 83.9378 15.7706 83.2645 16.4369C82.5912 17.1032 82.213 18.0069 82.213 18.9492V27.1211C82.213 27.5933 82.0234 28.0461 81.686 28.38C81.3486 28.7139 80.891 28.9015 80.4139 28.9015H73.5245C73.0474 28.9015 72.5898 28.7139 72.2524 28.38C71.915 28.0461 71.7254 27.5933 71.7254 27.1211V18.9729C71.7254 18.0306 71.3472 17.1269 70.6739 16.4606C70.0006 15.7943 69.0874 15.4199 68.1352 15.4199H64.8361C63.8839 15.4199 62.9707 15.7943 62.2974 16.4606C61.6241 17.1269 61.2458 18.0306 61.2458 18.9729V49.2127C61.2458 50.155 61.6241 51.0587 62.2974 51.725C62.9707 52.3913 63.8839 52.7656 64.8361 52.7656H68.1352C69.0874 52.7656 70.0006 52.3913 70.6739 51.725C71.3472 51.0587 71.7254 50.155 71.7254 49.2127V41.0566C71.7254 40.5844 71.915 40.1316 72.2524 39.7977C72.5898 39.4638 73.0474 39.2762 73.5245 39.2762H80.4059C80.883 39.2762 81.3406 39.4638 81.678 39.7977C82.0154 40.1316 82.205 40.5844 82.205 41.0566V49.2008C82.205 50.1431 82.5833 51.0468 83.2566 51.7132C83.9299 52.3795 84.8431 52.7538 85.7953 52.7538H89.0943C90.0465 52.7538 90.9597 52.3795 91.633 51.7132C92.3063 51.0468 92.6846 50.1431 92.6846 49.2008V18.9729C92.6846 18.0306 92.3063 17.1269 91.633 16.4606C90.9597 15.7943 90.0465 15.4199 89.0943 15.4199" fill="#CDCCCC"/>
<path d="M36.489 15.416H13.4555C12.5033 15.416 11.5901 15.7903 10.9168 16.4567C10.2435 17.123 9.86523 18.0267 9.86523 18.969V22.2338C9.86523 23.1761 10.2435 24.0798 10.9168 24.7461C11.5901 25.4124 12.5033 25.7868 13.4555 25.7868H17.9274C18.4045 25.7868 18.8621 25.9743 19.1995 26.3082C19.5369 26.6421 19.7265 27.095 19.7265 27.5672V49.189C19.7265 50.1313 20.1047 51.035 20.7781 51.7014C21.4514 52.3677 22.3646 52.742 23.3167 52.742H26.6118C27.564 52.742 28.4772 52.3677 29.1505 51.7014C29.8238 51.035 30.2021 50.1313 30.2021 49.189V27.583C30.2015 27.349 30.2477 27.1173 30.338 26.901C30.4282 26.6848 30.5607 26.4883 30.7278 26.3229C30.895 26.1574 31.0936 26.0263 31.3121 25.937C31.5306 25.8477 31.7648 25.802 32.0012 25.8025H36.4691C37.4213 25.8025 38.3345 25.4282 39.0078 24.7619C39.6811 24.0956 40.0593 23.1919 40.0593 22.2496V18.9769C40.0593 18.0346 39.6811 17.1309 39.0078 16.4646C38.3345 15.7982 37.4213 15.4239 36.4691 15.4239" fill="#CDCCCC"/>
<path d="M176.469 41.0566C176.47 41.3063 176.421 41.5536 176.324 41.7844C176.228 42.0153 176.087 42.2251 175.909 42.4018C175.731 42.5786 175.519 42.7188 175.286 42.8145C175.053 42.9101 174.803 42.9594 174.551 42.9594H167.589C167.079 42.9594 166.59 42.7589 166.23 42.4021C165.869 42.0452 165.667 41.5612 165.667 41.0566V40.3697C165.667 39.865 165.869 39.381 166.23 39.0242C166.59 38.6673 167.079 38.4668 167.589 38.4668H174.551C174.803 38.4668 175.053 38.5161 175.286 38.6118C175.519 38.7074 175.731 38.8477 175.909 39.0244C176.087 39.2012 176.228 39.4109 176.324 39.6418C176.421 39.8726 176.47 40.12 176.469 40.3697V41.0566ZM165.667 26.7026C165.667 26.2314 165.856 25.7795 166.192 25.4464C166.529 25.1132 166.986 24.9261 167.462 24.9261H173.322C173.798 24.9261 174.255 25.1132 174.591 25.4464C174.928 25.7795 175.117 26.2314 175.117 26.7026V27.3421C175.117 27.8136 174.928 28.2659 174.591 28.5996C174.255 28.9334 173.798 29.1215 173.322 29.1225H167.462C166.985 29.1215 166.529 28.9334 166.192 28.5996C165.856 28.2659 165.667 27.8136 165.667 27.3421V26.7026ZM182.744 32.8768C184.783 31.0293 185.613 28.6212 185.613 25.6485C185.613 22.9167 184.855 20.5835 182.972 18.7202C180.666 16.4345 177.144 15.2264 172.799 15.2264H158.769C157.802 15.2264 156.875 15.6066 156.191 16.2833C155.507 16.9599 155.123 17.8777 155.123 18.8347V49.0587C155.123 49.5323 155.218 50.0013 155.401 50.4389C155.584 50.8764 155.853 51.2739 156.191 51.6087C156.53 51.9434 156.932 52.2088 157.374 52.3897C157.817 52.5706 158.291 52.6635 158.769 52.663H173.198C182.309 52.663 186.969 48.5652 186.969 41.6093C186.969 36.872 185.321 34.3533 182.748 32.8808" fill="#CDCCCC"/>
</g>
<defs>
<clipPath id="clip0_1_395">
<rect width="233" height="68" fill="white"/>
</clipPath>
</defs>
</svg>
